<svg width="170.7" height="71.5" viewBox="0 0 170.7 71.5" xmlns="http://www.w3.org/2000/svg"><g id="svgGroup" stroke-linecap="round" fill-rule="evenodd" font-size="9pt" stroke="#ffffff" stroke-width="0.25mm" fill="#ffffff" style="stroke:#ffffff;stroke-width:0.25mm;fill:#ffffff"><path d="M 48.6 51.2 L 57.4 51.2 A 19.948 19.948 0 0 0 58.057 54.647 A 15.176 15.176 0 0 0 59.35 57.8 Q 60.9 60.6 63.75 62.1 Q 66.6 63.6 71 63.6 A 17.836 17.836 0 0 0 73.864 63.385 Q 75.386 63.137 76.615 62.603 A 8.456 8.456 0 0 0 78.35 61.6 A 10.613 10.613 0 0 0 81.699 57.284 A 13.427 13.427 0 0 0 82.15 56.1 A 22.246 22.246 0 0 0 83.047 52.099 A 30.19 30.19 0 0 0 83.3 48.1 L 83.3 0 L 92 0 L 92 46.3 A 48.41 48.41 0 0 1 91.652 52.219 A 39.193 39.193 0 0 1 90.9 56.45 A 24.41 24.41 0 0 1 89.35 61.024 A 19.713 19.713 0 0 1 87.35 64.45 A 16.026 16.026 0 0 1 81.595 69.29 A 19.046 19.046 0 0 1 80.85 69.65 A 19.26 19.26 0 0 1 76.516 71.008 Q 74.469 71.407 72.116 71.482 A 34.797 34.797 0 0 1 71 71.5 A 38.613 38.613 0 0 1 66.378 71.236 Q 63.911 70.939 61.767 70.305 A 24.217 24.217 0 0 1 61.75 70.3 A 19.208 19.208 0 0 1 57.589 68.539 A 16.121 16.121 0 0 1 54.9 66.6 A 16.586 16.586 0 0 1 51.257 61.87 A 20.148 20.148 0 0 1 50.5 60.25 A 23.564 23.564 0 0 1 49.196 55.921 Q 48.745 53.719 48.6 51.2 Z M 33.8 51.5 L 33.8 60.8 L 0 37.8 L 0 33.5 L 33.8 10.5 L 33.8 19.8 L 9.7 35.6 L 33.8 51.5 Z M 170.7 37.8 L 136.9 60.8 L 136.9 51.5 L 161 35.6 L 136.9 19.8 L 136.9 10.5 L 170.7 33.5 L 170.7 37.8 Z M 117.6 70.7 L 108.9 70.7 L 108.9 0 L 117.6 0 L 117.6 70.7 Z" vector-effect="non-scaling-stroke"/></g></svg>